<svg width="93" height="52" viewBox="0 0 93 52" fill="none" xmlns="http://www.w3.org/2000/svg">
<path d="M24.576 37.4399H17.424V36.4799C17.424 36.2559 17.424 36.0959 17.424 35.9999C17.424 35.9039 17.424 35.7439 17.424 35.5199C17.392 35.6159 17.232 35.7919 16.944 36.0479C16.656 36.3039 16.256 36.5599 15.744 36.8159C15.2 37.1039 14.56 37.3439 13.824 37.5359C13.088 37.7599 12.256 37.8719 11.328 37.8719C9.984 37.8719 8.72 37.6319 7.536 37.1519C6.352 36.6399 5.328 35.9519 4.464 35.0879C3.6 34.2239 2.912 33.2159 2.4 32.0639C1.92 30.9119 1.68 29.6959 1.68 28.4159C1.68 27.1359 1.92 25.9359 2.4 24.8159C2.912 23.6639 3.6 22.6559 4.464 21.7919C5.328 20.9279 6.352 20.2559 7.536 19.7759C8.72 19.2639 9.984 19.0079 11.328 19.0079C12.128 19.0079 12.88 19.1199 13.584 19.3439C14.32 19.5679 14.96 19.8239 15.504 20.1119C16.048 20.3999 16.432 20.6399 16.656 20.8319C16.88 20.9919 17.024 21.1199 17.088 21.2159C17.024 20.9599 16.976 20.6399 16.944 20.2559C16.944 19.8399 16.944 19.5199 16.944 19.2959V5.23194H13.776V1.43994H20.928V33.6479H24.576V37.4399ZM11.328 22.8959C10.496 22.8959 9.728 23.0399 9.024 23.3279C8.32 23.6159 7.712 23.9999 7.2 24.4799C6.752 24.9919 6.384 25.5839 6.096 26.2559C5.84 26.8959 5.712 27.6159 5.712 28.4159C5.712 29.2479 5.872 30.0319 6.192 30.7679C6.512 31.5039 6.944 32.1119 7.488 32.5919C7.968 33.0399 8.528 33.3919 9.168 33.6479C9.84 33.8719 10.56 33.9839 11.328 33.9839C12.096 33.9839 12.8 33.8719 13.44 33.6479C14.08 33.3919 14.656 33.0399 15.168 32.5919C15.712 32.1119 16.144 31.5039 16.464 30.7679C16.784 30.0319 16.944 29.2479 16.944 28.4159C16.944 27.5199 16.768 26.7039 16.416 25.9679C16.096 25.2319 15.648 24.6239 15.072 24.1439C14.592 23.7599 14.032 23.4559 13.392 23.2319C12.752 23.0079 12.064 22.8959 11.328 22.8959ZM35.186 37.4399H24.53V33.6479H27.89V23.2319H24.53V19.4399H31.874V33.6479H35.186V37.4399ZM32.402 12.4799C32.402 13.2159 32.146 13.8239 31.634 14.3039C31.122 14.7519 30.562 14.9759 29.954 14.9759C29.314 14.9759 28.738 14.7519 28.226 14.3039C27.714 13.8239 27.458 13.2159 27.458 12.4799C27.458 11.7439 27.714 11.1359 28.226 10.6559C28.738 10.1759 29.314 9.93594 29.954 9.93594C30.562 9.93594 31.122 10.1759 31.634 10.6559C32.146 11.1359 32.402 11.7439 32.402 12.4799ZM45.8016 37.4399H35.1456V33.6479H38.7936V5.23194H35.6256V1.43994H42.7776V33.6479H45.8016V37.4399ZM56.4172 37.4399H45.7612V33.6479H49.1212V23.2319H45.7612V19.4399H53.1052V33.6479H56.4172V37.4399ZM53.6332 12.4799C53.6332 13.2159 53.3772 13.8239 52.8652 14.3039C52.3532 14.7519 51.7932 14.9759 51.1852 14.9759C50.5452 14.9759 49.9692 14.7519 49.4572 14.3039C48.9452 13.8239 48.6892 13.2159 48.6892 12.4799C48.6892 11.7439 48.9452 11.1359 49.4572 10.6559C49.9692 10.1759 50.5452 9.93594 51.1852 9.93594C51.7932 9.93594 52.3532 10.1759 52.8652 10.6559C53.3772 11.1359 53.6332 11.7439 53.6332 12.4799ZM67.0329 37.4399H56.3769V33.6479H59.3049V23.3279H56.3769V19.4399H59.2569V12.6239C59.2569 10.8319 59.5449 9.24794 60.1209 7.87194C60.7289 6.49594 61.5449 5.34394 62.5689 4.41594C63.5929 3.45594 64.8089 2.73594 66.2169 2.25594C67.6569 1.74394 69.1929 1.45594 70.8249 1.39194V5.18394C69.7369 5.24794 68.7289 5.45594 67.8009 5.80794C66.9049 6.12794 66.1209 6.59194 65.4489 7.19994C64.7449 7.83994 64.2009 8.62394 63.8169 9.55194C63.4329 10.4799 63.2409 11.5519 63.2409 12.7679V19.4399H68.9049V23.3279H63.2409V33.6479H67.0329V37.4399Z" fill="black"/>
<path d="M77.5446 50.3763H66.5545V46.4654H71.0099C71.703 45.0462 72.3961 43.6271 73.0891 42.2079C73.8152 40.7888 74.5413 39.3861 75.2674 38C74.0132 35.5247 72.7756 33.0825 71.5545 30.6733C70.3664 28.264 69.1452 25.8218 67.8911 23.3465H63.7327V19.4356H74.7228V23.3465H72.099C73.0561 25.1617 74.0132 26.9934 74.9703 28.8416C75.9274 30.6568 76.7195 32.4884 77.3466 34.3366C77.9736 32.4884 78.7492 30.6568 79.6733 28.8416C80.6304 26.9934 81.5875 25.1617 82.5446 23.3465H79.4753V19.4356H90.8119V23.3465H86.7525C84.8053 27.2409 82.8581 31.1023 80.9109 34.9307C78.9967 38.7261 77.066 42.571 75.1188 46.4654H77.5446V50.3763Z" fill="black"/>
</svg>
